REM DIRINDEX 1\2,1\3,1\4,1\5
REM DIRNAME cjc044,folder01,folder02,folder03,folder04
TITLE ""
FILE "1800_174.mp3" MP3
  TRACK 01 AUDIO
    TITLE "2:cjc044_5892"
    INDEX 01 00:00:00
  TRACK 02 AUDIO
    TITLE "0:"
    INDEX 01 00:01:17
  TRACK 03 AUDIO
    TITLE "3:cjc044_5893"
    INDEX 01 00:01:66
  TRACK 04 AUDIO
    TITLE "0:"
    INDEX 01 00:03:23
  TRACK 05 AUDIO
    TITLE "4:cjc044_5894"
    INDEX 01 00:03:66
  TRACK 06 AUDIO
    TITLE "0:"
    INDEX 01 00:05:24
  TRACK 07 AUDIO
    TITLE "2:cjc044_5895"
    INDEX 01 00:06:73
  TRACK 08 AUDIO
    TITLE "0:"
    INDEX 01 00:08:13
  TRACK 09 AUDIO
    TITLE "3:cjc044_5896"
    INDEX 01 00:08:60
  TRACK 10 AUDIO
    TITLE "0:"
    INDEX 01 00:09:65
  TRACK 11 AUDIO
    TITLE "4:cjc044_5897"
    INDEX 01 00:10:39
  TRACK 12 AUDIO
    TITLE "0:"
    INDEX 01 00:11:56
  TRACK 13 AUDIO
    TITLE "2:cjc044_5898"
    INDEX 01 00:13:28
  TRACK 14 AUDIO
    TITLE "0:"
    INDEX 01 00:14:68
  TRACK 15 AUDIO
    TITLE "3:cjc044_5899"
    INDEX 01 00:15:38
  TRACK 16 AUDIO
    TITLE "0:"
    INDEX 01 00:16:38
  TRACK 17 AUDIO
    TITLE "4:cjc044_5900"
    INDEX 01 00:17:12
  TRACK 18 AUDIO
    TITLE "0:"
    INDEX 01 00:18:50
  TRACK 19 AUDIO
    TITLE "2:cjc044_5901"
    INDEX 01 00:20:28
  TRACK 20 AUDIO
    TITLE "0:"
    INDEX 01 00:21:58
  TRACK 21 AUDIO
    TITLE "3:cjc044_5902"
    INDEX 01 00:22:30
  TRACK 22 AUDIO
    TITLE "0:"
    INDEX 01 00:23:44
  TRACK 23 AUDIO
    TITLE "4:cjc044_5903"
    INDEX 01 00:24:22
  TRACK 24 AUDIO
    TITLE "0:"
    INDEX 01 00:25:62
  TRACK 25 AUDIO
    TITLE "2:cjc044_5904"
    INDEX 01 00:27:39
  TRACK 26 AUDIO
    TITLE "0:"
    INDEX 01 00:28:47
  TRACK 27 AUDIO
    TITLE "3:cjc044_5905"
    INDEX 01 00:29:21
  TRACK 28 AUDIO
    TITLE "0:"
    INDEX 01 00:30:34
  TRACK 29 AUDIO
    TITLE "4:cjc044_5906"
    INDEX 01 00:31:12
  TRACK 30 AUDIO
    TITLE "0:"
    INDEX 01 00:32:19
  TRACK 31 AUDIO
    TITLE "2:cjc044_5907"
    INDEX 01 00:33:66
  TRACK 32 AUDIO
    TITLE "0:"
    INDEX 01 00:35:23
  TRACK 33 AUDIO
    TITLE "3:cjc044_5908"
    INDEX 01 00:35:72
  TRACK 34 AUDIO
    TITLE "0:"
    INDEX 01 00:37:01
  TRACK 35 AUDIO
    TITLE "4:cjc044_5909"
    INDEX 01 00:37:48
  TRACK 36 AUDIO
    TITLE "0:"
    INDEX 01 00:39:07
  TRACK 37 AUDIO
    TITLE "2:cjc044_5910"
    INDEX 01 00:40:56
  TRACK 38 AUDIO
    TITLE "0:"
    INDEX 01 00:42:10
  TRACK 39 AUDIO
    TITLE "3:cjc044_5911"
    INDEX 01 00:42:63
  TRACK 40 AUDIO
    TITLE "0:"
    INDEX 01 00:43:70
  TRACK 41 AUDIO
    TITLE "4:cjc044_5912"
    INDEX 01 00:44:44
  TRACK 42 AUDIO
    TITLE "0:"
    INDEX 01 00:45:69
  TRACK 43 AUDIO
    TITLE "2:cjc044_5913"
    INDEX 01 00:47:52
  TRACK 44 AUDIO
    TITLE "0:"
    INDEX 01 00:48:69
  TRACK 45 AUDIO
    TITLE "3:cjc044_5914"
    INDEX 01 00:49:45
  TRACK 46 AUDIO
    TITLE "0:"
    INDEX 01 00:50:46
  TRACK 47 AUDIO
    TITLE "4:cjc044_5915"
    INDEX 01 00:51:18
  TRACK 48 AUDIO
    TITLE "0:"
    INDEX 01 00:52:36
  TRACK 49 AUDIO
    TITLE "2:cjc044_5916"
    INDEX 01 00:54:09
  TRACK 50 AUDIO
    TITLE "0:"
    INDEX 01 00:55:26
  TRACK 51 AUDIO
    TITLE "3:cjc044_5917"
    INDEX 01 00:56:00
  TRACK 52 AUDIO
    TITLE "0:"
    INDEX 01 00:57:72
  TRACK 53 AUDIO
    TITLE "4:cjc044_5918"
    INDEX 01 00:58:46
  TRACK 54 AUDIO
    TITLE "0:"
    INDEX 01 00:59:63
  TRACK 55 AUDIO
    TITLE "2:cjc044_5919"
    INDEX 01 01:01:38
  TRACK 56 AUDIO
    TITLE "0:"
    INDEX 01 01:02:67
  TRACK 57 AUDIO
    TITLE "3:cjc044_5920"
    INDEX 01 01:03:39
  TRACK 58 AUDIO
    TITLE "0:"
    INDEX 01 01:04:29
  TRACK 59 AUDIO
    TITLE "4:cjc044_5921"
    INDEX 01 01:05:05
  TRACK 60 AUDIO
    TITLE "0:"
    INDEX 01 01:06:43
  TRACK 61 AUDIO
    TITLE "2:cjc044_5922"
    INDEX 01 01:08:21
  TRACK 62 AUDIO
    TITLE "0:"
    INDEX 01 01:09:57
  TRACK 63 AUDIO
    TITLE "3:cjc044_5923"
    INDEX 01 01:10:28
  TRACK 64 AUDIO
    TITLE "0:"
    INDEX 01 01:12:01
  TRACK 65 AUDIO
    TITLE "4:cjc044_5924"
    INDEX 01 01:12:50
  TRACK 66 AUDIO
    TITLE "0:"
    INDEX 01 01:14:12
  TRACK 67 AUDIO
    TITLE "2:cjc044_5925"
    INDEX 01 01:15:62
  TRACK 68 AUDIO
    TITLE "0:"
    INDEX 01 01:17:04
  TRACK 69 AUDIO
    TITLE "3:cjc044_5926"
    INDEX 01 01:17:53
  TRACK 70 AUDIO
    TITLE "0:"
    INDEX 01 01:18:56
  TRACK 71 AUDIO
    TITLE "4:cjc044_5927"
    INDEX 01 01:19:28
  TRACK 72 AUDIO
    TITLE "0:"
    INDEX 01 01:20:44
  TRACK 73 AUDIO
    TITLE "2:cjc044_5928"
    INDEX 01 01:22:17
  TRACK 74 AUDIO
    TITLE "0:"
    INDEX 01 01:23:38
  TRACK 75 AUDIO
    TITLE "3:cjc044_5929"
    INDEX 01 01:24:12
  TRACK 76 AUDIO
    TITLE "0:"
    INDEX 01 01:25:45
  TRACK 77 AUDIO
    TITLE "4:cjc044_5930"
    INDEX 01 01:26:15
  TRACK 78 AUDIO
    TITLE "0:"
    INDEX 01 01:27:38
  TRACK 79 AUDIO
    TITLE "2:cjc044_5931"
    INDEX 01 01:29:13
  TRACK 80 AUDIO
    TITLE "0:"
    INDEX 01 01:30:46
  TRACK 81 AUDIO
    TITLE "3:cjc044_5932"
    INDEX 01 01:31:22
  TRACK 82 AUDIO
    TITLE "0:"
    INDEX 01 01:32:37
  TRACK 83 AUDIO
    TITLE "4:cjc044_5933"
    INDEX 01 01:33:09
  TRACK 84 AUDIO
    TITLE "0:"
    INDEX 01 01:34:36
  TRACK 85 AUDIO
    TITLE "2:cjc044_5934"
    INDEX 01 01:36:17
  TRACK 86 AUDIO
    TITLE "0:"
    INDEX 01 01:37:34
  TRACK 87 AUDIO
    TITLE "3:cjc044_5935"
    INDEX 01 01:38:10
  TRACK 88 AUDIO
    TITLE "0:"
    INDEX 01 01:39:02
  TRACK 89 AUDIO
    TITLE "4:cjc044_5936"
    INDEX 01 01:39:49
  TRACK 90 AUDIO
    TITLE "0:"
    INDEX 01 01:40:62
  TRACK 91 AUDIO
    TITLE "2:cjc044_5937"
    INDEX 01 01:42:39
  TRACK 92 AUDIO
    TITLE "0:"
    INDEX 01 01:43:39
  TRACK 93 AUDIO
    TITLE "3:cjc044_5938"
    INDEX 01 01:44:15
  TRACK 94 AUDIO
    TITLE "0:"
    INDEX 01 01:45:18
  TRACK 95 AUDIO
    TITLE "4:cjc044_5939"
    INDEX 01 01:45:63
  TRACK 96 AUDIO
    TITLE "0:"
    INDEX 01 01:46:66
  TRACK 97 AUDIO
    TITLE "2:cjc044_5940"
    INDEX 01 01:48:44
  TRACK 98 AUDIO
    TITLE "0:"
    INDEX 01 01:49:65
  TRACK 99 AUDIO
    TITLE "3:cjc044_5941"
    INDEX 01 01:50:39
  TRACK 100 AUDIO
    TITLE "0:"
    INDEX 01 01:52:16
  TRACK 101 AUDIO
    TITLE "4:cjc044_5942"
    INDEX 01 01:52:65
  TRACK 102 AUDIO
    TITLE "0:"
    INDEX 01 01:54:13
  TRACK 103 AUDIO
    TITLE "2:cjc044_5943"
    INDEX 01 01:55:60
  TRACK 104 AUDIO
    TITLE "0:"
    INDEX 01 01:57:00
  TRACK 105 AUDIO
    TITLE "3:cjc044_5944"
    INDEX 01 01:57:49
  TRACK 106 AUDIO
    TITLE "0:"
    INDEX 01 02:00:47
  TRACK 107 AUDIO
    TITLE "4:cjc044_5945"
    INDEX 01 02:01:21
  TRACK 108 AUDIO
    TITLE "0:"
    INDEX 01 02:02:38
  TRACK 109 AUDIO
    TITLE "2:cjc044_5946"
    INDEX 01 02:04:10
  TRACK 110 AUDIO
    TITLE "0:"
    INDEX 01 02:05:38
  TRACK 111 AUDIO
    TITLE "3:cjc044_5947"
    INDEX 01 02:06:12
  TRACK 112 AUDIO
    TITLE "0:"
    INDEX 01 02:07:37
  TRACK 113 AUDIO
    TITLE "4:cjc044_5948"
    INDEX 01 02:08:09
  TRACK 114 AUDIO
    TITLE "0:"
    INDEX 01 02:09:42
